<svg baseProfile="tiny" xmlns="http://www.w3.org/2000/svg" viewBox="0 0 229.3 72.8"><g fill="#4A5154"><path d="M123.5 20.2c0 6.4-1.9 11.4-5.7 14.9-3.8 3.5-9.2 5.3-16.2 5.3h-4.4v19.1H81.6V1.9h20c7.3 0 12.8 1.6 16.4 4.8 3.7 3.1 5.5 7.7 5.5 13.5zm-26.3 7.5h2.8c2.3 0 4.2-.7 5.6-2 1.4-1.3 2.1-3.1 2.1-5.4 0-3.9-2.2-5.8-6.5-5.8h-4v13.2zM142.1 38.6v21h-15.6V1.9h18.9c15.7 0 23.5 5.7 23.5 17.1 0 6.7-3.3 11.9-9.8 15.5L176 59.6h-17.7l-12.2-21h-4zm0-11.7h2.9c5.4 0 8.2-2.4 8.2-7.2 0-4-2.7-6-8-6h-3.1v13.2z"/></g><g fill="#4A5154"><path d="M178.5 57.4c0-1.5.4-2.6 1.2-3.5.8-.9 2-1.3 3.4-1.3 1 0 1.8.3 2.4.8.6.6.9 1.4.9 2.4 0 1.4-.4 2.5-1.3 3.4-.8.9-1.9 1.4-3.3 1.4-1.2 0-2-.3-2.6-.9-.5-.6-.7-1.4-.7-2.3zM188.6 72.8c-1.6 0-2.9-.2-3.9-.6v-5c1.1.4 2.1.5 3.1.5 2.3 0 3.8-1.6 4.5-4.9l6.8-32.1h6.1l-7 32.8c-.7 3.2-1.8 5.5-3.4 7-1.6 1.5-3.7 2.3-6.2 2.3zm11.7-49.2c0-1.2.3-2.2 1-2.9.7-.7 1.6-1.1 2.9-1.1.9 0 1.7.2 2.3.7s.9 1.2.9 2.1c0 1.2-.4 2.2-1.1 2.9-.7.7-1.6 1.1-2.8 1.1-.9 0-1.7-.2-2.3-.7s-.9-1.1-.9-2.1zM226.7 50.9c0 3-1 5.4-3.1 7-2.1 1.6-4.9 2.5-8.6 2.5-3.3 0-6.2-.6-8.5-1.8v-5.3c2.7 1.6 5.4 2.4 8.2 2.4 1.7 0 3.1-.4 4.1-1.1 1.1-.7 1.6-1.7 1.6-2.9 0-.9-.3-1.7-.9-2.3-.6-.6-1.8-1.5-3.7-2.6-2.2-1.2-3.7-2.4-4.6-3.6-.9-1.2-1.4-2.7-1.4-4.3 0-2.7.9-4.9 2.8-6.4s4.4-2.3 7.6-2.3c3.4 0 6.5.7 9.1 2.2l-2 4.6c-2.5-1.3-4.8-2-7-2-1.3 0-2.3.3-3.1.9s-1.2 1.4-1.2 2.4c0 .8.3 1.5.9 2.1.6.6 1.8 1.4 3.6 2.4s3.1 1.9 3.9 2.7 1.4 1.5 1.8 2.4c.2.9.5 1.9.5 3z"/></g><path fill="#6DC664" d="M71.2 9.6c0-.3-.1-.6-.4-.9L62.4.3c-.2-.2-.5-.3-.8-.3-.3 0-.6.1-.9.3L29.9 31.1 18.8 19.9c-.2-.2-.5-.3-.9-.3-.3 0-.6.1-.9.3l-8.4 8.4c-.2.2-.4.5-.4.9 0 .3.1.6.4.9l20.5 20.5c.3.2.6.3.9.3.3 0 .6-.1.9-.3l40-40c.2-.3.3-.6.3-1z"/><path fill="#AFB9BA" d="M32.9 52.7l-.2.2-.2.1c-.8.6-1.7.9-2.6.9-.9 0-1.8-.3-2.6-.9l-.2-.1-.2-.2L6.5 32.2c-.8-.8-1.3-1.9-1.3-3 0-1.2.5-2.2 1.3-3l8.4-8.4c.8-.8 1.8-1.2 3-1.2s2.2.4 3 1.2l9 9.1L55.2 1.6H3.1C1.4 1.6 0 3 0 4.7v51.7c0 1.7 1.4 3.1 3.1 3.1h51.7c1.7 0 3.1-1.4 3.1-3.1V27.7l-25 25z"/></svg>