<?xml version="1.0" encoding="utf-8"?>
<!-- Generator: Adobe Illustrator 18.1.1, SVG Export Plug-In . SVG Version: 6.00 Build 0)  -->
<!DOCTYPE svg PUBLIC "-//W3C//DTD SVG 1.1 Tiny//EN" "http://www.w3.org/Graphics/SVG/1.1/DTD/svg11-tiny.dtd">
<svg version="1.1" baseProfile="tiny" id="Layer_1" xmlns="http://www.w3.org/2000/svg" xmlns:xlink="http://www.w3.org/1999/xlink"
	 x="0px" y="0px" viewBox="0 0 229.3 72.8" xml:space="preserve">
<g>
	<path fill="#4A5154" d="M123.5,20.2c0,6.4-1.9,11.4-5.7,14.9c-3.8,3.5-9.2,5.3-16.2,5.3h-4.4v19.1H81.6V1.9h20
		c7.3,0,12.8,1.6,16.4,4.8C121.7,9.8,123.5,14.4,123.5,20.2z M97.2,27.7h2.8c2.3,0,4.2-0.7,5.6-2c1.4-1.3,2.1-3.1,2.1-5.4
		c0-3.9-2.2-5.8-6.5-5.8h-4V27.7z"/>
	<path fill="#4A5154" d="M142.1,38.6v21h-15.6V1.9h18.9c15.7,0,23.5,5.7,23.5,17.1c0,6.7-3.3,11.9-9.8,15.5L176,59.6h-17.7l-12.2-21
		H142.1z M142.1,26.9h2.9c5.4,0,8.2-2.4,8.2-7.2c0-4-2.7-6-8-6h-3.1V26.9z"/>
</g>
<g>
	<path fill="#4A5154" d="M178.5,57.4c0-1.5,0.4-2.6,1.2-3.5c0.8-0.9,2-1.3,3.4-1.3c1,0,1.8,0.3,2.4,0.8c0.6,0.6,0.9,1.4,0.9,2.4
		c0,1.4-0.4,2.5-1.3,3.4c-0.8,0.9-1.9,1.4-3.3,1.4c-1.2,0-2-0.3-2.6-0.9C178.7,59.1,178.5,58.3,178.5,57.4z"/>
	<path fill="#4A5154" d="M188.6,72.8c-1.6,0-2.9-0.2-3.9-0.6v-5c1.1,0.4,2.1,0.5,3.1,0.5c2.3,0,3.8-1.6,4.5-4.9l6.8-32.1h6.1
		l-7,32.8c-0.7,3.2-1.8,5.5-3.4,7C193.2,72,191.1,72.8,188.6,72.8z M200.3,23.6c0-1.2,0.3-2.2,1-2.9c0.7-0.7,1.6-1.1,2.9-1.1
		c0.9,0,1.7,0.2,2.3,0.7s0.9,1.2,0.9,2.1c0,1.2-0.4,2.2-1.1,2.9c-0.7,0.7-1.6,1.1-2.8,1.1c-0.9,0-1.7-0.2-2.3-0.7
		S200.3,24.6,200.3,23.6z"/>
	<path fill="#4A5154" d="M226.7,50.9c0,3-1,5.4-3.1,7c-2.1,1.6-4.9,2.5-8.6,2.5c-3.3,0-6.2-0.6-8.5-1.8v-5.3
		c2.7,1.6,5.4,2.4,8.2,2.4c1.7,0,3.1-0.4,4.1-1.1c1.1-0.7,1.6-1.7,1.6-2.9c0-0.9-0.3-1.7-0.9-2.3c-0.6-0.6-1.8-1.5-3.7-2.6
		c-2.2-1.2-3.7-2.4-4.6-3.6c-0.9-1.2-1.4-2.7-1.4-4.3c0-2.7,0.9-4.9,2.8-6.4c1.9-1.5,4.4-2.3,7.6-2.3c3.4,0,6.5,0.7,9.1,2.2l-2,4.6
		c-2.5-1.3-4.8-2-7-2c-1.3,0-2.3,0.3-3.1,0.9s-1.2,1.4-1.2,2.4c0,0.8,0.3,1.5,0.9,2.1c0.6,0.6,1.8,1.4,3.6,2.4
		c1.8,1,3.1,1.9,3.9,2.7s1.4,1.5,1.8,2.4C226.4,48.8,226.7,49.8,226.7,50.9z"/>
</g>
<path fill="#6DC664" d="M71.2,9.6c0-0.3-0.1-0.6-0.4-0.9l-8.4-8.4C62.2,0.1,61.9,0,61.6,0c-0.3,0-0.6,0.1-0.9,0.3L29.9,31.1
	L18.8,19.9c-0.2-0.2-0.5-0.3-0.9-0.3c-0.3,0-0.6,0.1-0.9,0.3l-8.4,8.4c-0.2,0.2-0.4,0.5-0.4,0.9c0,0.3,0.1,0.6,0.4,0.9l20.5,20.5
	c0.3,0.2,0.6,0.3,0.9,0.3c0.3,0,0.6-0.1,0.9-0.3l40-40C71.1,10.3,71.2,10,71.2,9.6z"/>
<g>
	<path fill="#AFB9BA" d="M32.9,52.7l-0.2,0.2L32.5,53c-0.8,0.6-1.7,0.9-2.6,0.9c-0.9,0-1.8-0.3-2.6-0.9l-0.2-0.1l-0.2-0.2L6.5,32.2
		c-0.8-0.8-1.3-1.9-1.3-3c0-1.2,0.5-2.2,1.3-3l8.4-8.4c0.8-0.8,1.8-1.2,3-1.2s2.2,0.4,3,1.2l9,9.1L55.2,1.6c-0.1,0-0.2,0-0.4,0H3.1
		C1.4,1.6,0,3,0,4.7v51.7c0,1.7,1.4,3.1,3.1,3.1h51.7c1.7,0,3.1-1.4,3.1-3.1V27.7L32.9,52.7z"/>
</g>
</svg>
