<?xml version="1.0" encoding="utf-8"?>
<!-- Generator: Adobe Illustrator 18.1.1, SVG Export Plug-In . SVG Version: 6.00 Build 0)  -->
<!DOCTYPE svg PUBLIC "-//W3C//DTD SVG 1.1 Tiny//EN" "http://www.w3.org/Graphics/SVG/1.1/DTD/svg11-tiny.dtd">
<svg version="1.1" baseProfile="tiny" id="Layer_1" xmlns="http://www.w3.org/2000/svg" xmlns:xlink="http://www.w3.org/1999/xlink"
	 x="0px" y="0px" viewBox="0 0 439 145" xml:space="preserve">
<g>
	<path fill="#495153" d="M417.5,35l-18.2,43c-5.3,12.1-16.9,16.7-23.1,15.7c-1.8-0.3-3.4-1.8-3.4-3.4c0-0.8,0.3-2.3,0.9-3.8
		c3-7.4,21.7-51.5,21.7-51.5h-40.1l6.3-14.8c4.3-8.5,8.7-14.3,15.3-14.3c4.6,0,6.1,2,5.6,2.4c-0.5,0.5-1.2,0.8-2.3,1.7
		c-1.8,2-2.9,4.1-2.9,6.8c0,5.2,4.7,8.5,10.6,8.5c6.7,0,12.3-4.1,12.3-11.7c0-7.6-8.2-13.7-20.5-13.7c-13.8,0-26.1,4.6-34.4,12.9
		c-4.2,4.2-7.4,9.1-10,14.1l-21.2,50.8c-7.8,13.7-17.7,15-20.1,15c-1.8,0-2.7-1.2-2.7-2.9c0-0.8,0.3-2.3,0.9-3.8
		c3-7.4,18.9-45.1,18.9-45.1h-22l-15.5,36.8c-7.8,13.7-17.2,14.9-19.6,14.9c-0.4,0-0.8-0.1-1.2-0.2c-0.7-0.6-1.2-1.5-1.2-2.5
		c0-1.8,0.7-4.2,3.3-10.1L288.2,0h-21.6c0,0-17.9,42.6-18.2,43.4s-0.5,0.5-0.5,0.4c-1.7-6.1-7-11.4-14.1-11.4
		c-10.3,0-22.6,6.2-31.7,15.2c-9.1,9.2-14.9,19.9-16.1,29.8c-5.5,12.1-13,14.9-16.5,15.2l0,0c-1.8,0-2.6-1.6-2.6-3.3
		c0-1.7,0.5-3.9,2-7.6L188.4,35l-21.9,0l-3.3,7.5c-2.1-5.5-7.1-9.7-13.6-9.7c-11.8,0.1-26.8,10.1-33.2,17.7
		c-9.9,11.8-13.8,20.6-13.9,28.8c-1.3,9.8-8.9,13.2-12.4,13.2c-2.4,0-3.6-1.8-3.6-5.8c0-5.8,1.2-11.7,1.2-17.9
		c0-8.2-4.9-17.6-16.6-19.8c-0.2,0-0.3-0.5,0.1-0.5c9.3-1.4,14.8-3.2,21.4-6.4c8.2-4.1,17.2-13.5,17.2-23.8c0-6.1-3.6-11.7-10.3-15
		C94.6,1,88.5,0,81,0L42.3,0L0,101h26l20.9-50c0,0,6.5,0,8.2,0c4.3,0,6.8,1.8,6.8,6.8c0,6.2-1.5,17.1-1.5,25.5c0,5.9,2,10.3,4.7,13
		c3.2,3.2,7.7,5.5,15.3,5.5c9.4,0,15.8-4.4,24.2-11.3c3.2,6.9,9.3,11.3,15.8,11.3c10.7,0,20.3-9.4,25.8-16.3
		c-0.2,1.1-0.2,4.1-0.1,4.6c0,0.1,0,0.1,0,0.2c0,7,5.8,11.4,14,11.4c0,0,0.8,0,1.2,0c8.4,0,16.6-3.1,25.3-15.4
		c2.5,8.2,9.5,15.8,18.5,16.2c9.4,0.4,18.1-5.8,25.5-15.5v2.9c0,6.6,4.6,11,12.8,11.8c0.9,0.1,1.8,0.2,2.8,0.2
		c7.6,0,14.2-2.9,24.1-12.5c0.1,3.4,1.4,6.2,3.8,8.4c2.3,2.3,6.4,4.1,11.5,4.1c6.6,0,12.3-2.2,22.2-9.2c-0.9,2-3.7,8.4-3.7,8.4h23.6
		l25.1-60h17.7c0,0-10.4,25-13.8,32.9c-3.3,8-4.4,11.7-4.4,15.5c0,3.6,1.4,6.5,3.8,8.8c2.3,2.3,5.5,3.8,10.7,4.1
		c9.7,0.5,16.7-1.2,25.4-7l-12.3,29.2c-4.3,8.5-8.6,14.6-15.1,14.6c-4.6,0-6.1-2-5.6-2.4c0.5-0.5,1.2-0.8,2.3-1.7
		c1.8-2,2.9-4.1,2.9-6.8c0-5.2-4.7-8.5-10.6-8.5c-6.7,0-12.3,4.1-12.3,11.7c0,7.6,8.2,13.7,20.5,13.7c13.8,0,23.7-4.6,32.1-12.9
		c4.2-4.2,7.4-9.1,10-14.1l35-83H417.5z M59.8,45.3l-10.4,0L65.7,6.1l7.3,0c4.7,0,7.7,0.9,9.4,2.6c1.5,1.5,2.1,3.3,2.1,6.1
		c0,8.7-6.6,20.1-10.8,24.5C70.2,42.6,66.6,45.3,59.8,45.3z M150.8,71.4c-3.3,7-13.3,19.6-20.5,19.6c-3.3,0-5.5-2.4-5.5-6.5
		c0-3.6,2.1-10.8,7.3-21.2c7-14,14.9-22.3,21.1-22.3c4.1,0,6.7,3.6,6.7,7.3C159.9,50.6,156.9,59.2,150.8,71.4z M237.5,68.8
		c-2.9,6.1-7.1,12.3-12.6,17.7c-3.8,3.8-6.5,5.3-10,5.3c-3.6,0-5.6-2.6-5.6-7.6c0-5.2,3.2-14.6,7.4-23.2c6.2-12.3,13-19.7,19.9-19.7
		c3.2,0,5.5,1.9,6.9,4.9c1.2,2.7,1.2,5.9,0,8.7C242,58.7,239.5,64.7,237.5,68.8z"/>
	<path fill="#495153" d="M303.4,35c4.3,0,8-1.6,10.2-4c1.6-1.6,3.5-4,3.5-7.4c0-3.8-2.7-7.8-8.2-7.8c-6.6,0-13.6,6.2-13.6,12
		C295.3,31.9,298.9,35,303.4,35z"/>
</g>
</svg>
